# xmcd CD database file
#
# Track frame offsets:
#	183
#	16273
#	35220
#
# Disc length: 710 seconds
#
# Revision: 6
# Processed by: cddbd v1.5PL3 Copyright (c) Steve Scherf et al.
# Submitted via: CDex 1.51
#
DISCID=1e02c403
DTITLE=Sundays, The - Summertime [CD2]
DYEAR=1997
DGENRE=Twee Pop
TTITLE0=Summertime
TTITLE1=Skin and Bones [Peel Session 03-03-89]
TTITLE2=Here's Where The Story Ends [Black Session 15-12-92]
EXTD=YEAR: 1997
EXTT0=
EXTT1=
EXTT2=
PLAYORDER=
